<svg width="1920" height="1080" viewBox="0 0 1920 1080" fill="none" xmlns="http://www.w3.org/2000/svg">
<rect width="1920" height="1080" fill="url(#paint0_linear_2_2)"/>
<path d="M318.811 392C316.315 392 314.395 391.328 313.051 389.984C311.707 388.64 311.035 386.72 311.035 384.224V332.096C311.035 329.6 311.707 327.68 313.051 326.336C314.395 324.992 316.315 324.32 318.811 324.32H342.043C346.843 324.32 350.939 325.024 354.331 326.432C357.723 327.84 360.283 329.856 362.011 332.48C363.803 335.104 364.699 338.24 364.699 341.888C364.699 345.92 363.547 349.344 361.243 352.16C358.939 354.976 355.771 356.864 351.739 357.824V356.288C356.411 357.12 360.027 358.976 362.587 361.856C365.211 364.672 366.523 368.352 366.523 372.896C366.523 378.912 364.443 383.616 360.283 387.008C356.123 390.336 350.395 392 343.099 392H318.811ZM325.243 380.96H341.083C344.923 380.96 347.739 380.224 349.531 378.752C351.323 377.216 352.219 374.976 352.219 372.032C352.219 369.088 351.323 366.88 349.531 365.408C347.739 363.936 344.923 363.2 341.083 363.2H325.243V380.96ZM325.243 352.16H339.451C343.163 352.16 345.915 351.456 347.707 350.048C349.499 348.64 350.395 346.528 350.395 343.712C350.395 340.96 349.499 338.88 347.707 337.472C345.915 336.064 343.163 335.36 339.451 335.36H325.243V352.16ZM399.193 393.056C394.137 393.056 389.721 392.064 385.945 390.08C382.233 388.096 379.353 385.248 377.305 381.536C375.257 377.824 374.233 373.44 374.233 368.384C374.233 364.608 374.809 361.216 375.961 358.208C377.113 355.2 378.777 352.64 380.953 350.528C383.193 348.352 385.849 346.72 388.921 345.632C391.993 344.48 395.417 343.904 399.193 343.904C404.249 343.904 408.633 344.896 412.345 346.88C416.121 348.864 419.033 351.68 421.081 355.328C423.193 358.976 424.249 363.328 424.249 368.384C424.249 372.224 423.641 375.648 422.425 378.656C421.273 381.664 419.609 384.256 417.433 386.432C415.257 388.608 412.601 390.272 409.465 391.424C406.393 392.512 402.969 393.056 399.193 393.056ZM399.193 382.208C401.305 382.208 403.129 381.696 404.665 380.672C406.201 379.648 407.417 378.144 408.313 376.16C409.209 374.112 409.657 371.52 409.657 368.384C409.657 363.712 408.697 360.288 406.777 358.112C404.857 355.872 402.329 354.752 399.193 354.752C397.145 354.752 395.321 355.232 393.721 356.192C392.185 357.152 390.969 358.656 390.073 360.704C389.241 362.688 388.825 365.248 388.825 368.384C388.825 373.056 389.785 376.544 391.705 378.848C393.625 381.088 396.121 382.208 399.193 382.208ZM440.364 392.864C437.996 392.864 436.172 392.224 434.892 390.944C433.676 389.664 433.068 387.84 433.068 385.472V330.848C433.068 328.416 433.676 326.592 434.892 325.376C436.172 324.096 437.996 323.456 440.364 323.456C442.668 323.456 444.428 324.096 445.644 325.376C446.924 326.592 447.564 328.416 447.564 330.848V353.696H446.22C447.692 350.56 449.868 348.16 452.748 346.496C455.692 344.768 459.02 343.904 462.732 343.904C466.508 343.904 469.612 344.64 472.044 346.112C474.476 347.52 476.3 349.696 477.516 352.64C478.732 355.52 479.34 359.2 479.34 363.68V385.472C479.34 387.84 478.7 389.664 477.42 390.944C476.204 392.224 474.412 392.864 472.044 392.864C469.74 392.864 467.948 392.224 466.668 390.944C465.452 389.664 464.844 387.84 464.844 385.472V364.352C464.844 361.088 464.236 358.752 463.02 357.344C461.868 355.872 460.076 355.136 457.644 355.136C454.572 355.136 452.108 356.096 450.252 358.016C448.46 359.936 447.564 362.496 447.564 365.696V385.472C447.564 390.4 445.164 392.864 440.364 392.864ZM507.538 393.056C503.57 393.056 500.274 392.32 497.65 390.848C495.026 389.376 493.074 387.168 491.794 384.224C490.578 381.216 489.97 377.504 489.97 373.088V351.392C489.97 348.96 490.578 347.136 491.794 345.92C493.074 344.704 494.866 344.096 497.17 344.096C499.474 344.096 501.266 344.704 502.546 345.92C503.826 347.136 504.466 348.96 504.466 351.392V373.472C504.466 376.288 505.042 378.4 506.194 379.808C507.346 381.152 509.17 381.824 511.666 381.824C514.418 381.824 516.658 380.864 518.386 378.944C520.178 376.96 521.074 374.368 521.074 371.168V351.392C521.074 348.96 521.682 347.136 522.898 345.92C524.178 344.704 525.97 344.096 528.274 344.096C530.642 344.096 532.434 344.704 533.65 345.92C534.93 347.136 535.57 348.96 535.57 351.392V385.472C535.57 390.4 533.234 392.864 528.562 392.864C526.258 392.864 524.498 392.224 523.282 390.944C522.066 389.664 521.458 387.84 521.458 385.472V379.04L522.898 382.784C521.49 386.048 519.474 388.576 516.85 390.368C514.226 392.16 511.122 393.056 507.538 393.056ZM550.819 392C549.411 392 548.227 391.648 547.267 390.944C546.307 390.176 545.667 389.216 545.347 388.064C545.027 386.912 545.027 385.664 545.347 384.32C545.731 382.976 546.467 381.728 547.555 380.576L571.075 352.352V355.712H550.243C548.515 355.712 547.171 355.232 546.211 354.272C545.251 353.312 544.771 352 544.771 350.336C544.771 348.544 545.251 347.2 546.211 346.304C547.171 345.344 548.515 344.864 550.243 344.864H577.987C579.715 344.864 581.091 345.248 582.115 346.016C583.139 346.784 583.811 347.744 584.131 348.896C584.515 349.984 584.547 351.2 584.227 352.544C583.971 353.824 583.299 355.04 582.211 356.192L558.115 384.992V381.248H580.387C584.035 381.248 585.859 383.04 585.859 386.624C585.859 388.352 585.379 389.696 584.419 390.656C583.459 391.552 582.115 392 580.387 392H550.819ZM564.835 340.64C563.107 340.64 561.571 340.192 560.227 339.296C558.883 338.336 557.763 337.024 556.867 335.36L550.627 323.936C549.987 322.784 549.827 321.728 550.147 320.768C550.531 319.744 551.171 319.008 552.067 318.56C552.963 318.048 553.923 317.888 554.947 318.08C555.971 318.208 556.835 318.784 557.539 319.808L564.835 330.848L572.131 319.808C572.835 318.784 573.699 318.208 574.723 318.08C575.747 317.888 576.707 318.048 577.603 318.56C578.499 319.008 579.107 319.744 579.427 320.768C579.811 321.728 579.683 322.784 579.043 323.936L572.899 335.36C572.003 337.024 570.883 338.336 569.539 339.296C568.195 340.192 566.627 340.64 564.835 340.64ZM616.454 393.056C610.886 393.056 606.086 392.064 602.054 390.08C598.086 388.032 595.014 385.184 592.838 381.536C590.726 377.824 589.67 373.472 589.67 368.48C589.67 363.616 590.694 359.36 592.742 355.712C594.79 352 597.638 349.12 601.286 347.072C604.998 344.96 609.19 343.904 613.862 343.904C617.254 343.904 620.326 344.48 623.078 345.632C625.83 346.72 628.198 348.32 630.182 350.432C632.166 352.48 633.67 355.008 634.694 358.016C635.718 360.96 636.23 364.256 636.23 367.904C636.23 369.12 635.846 370.048 635.078 370.688C634.31 371.264 633.19 371.552 631.718 371.552H601.574V364.064H625.766L624.23 365.408C624.23 362.784 623.846 360.608 623.078 358.88C622.31 357.088 621.19 355.744 619.718 354.848C618.31 353.952 616.55 353.504 614.438 353.504C612.07 353.504 610.054 354.048 608.39 355.136C606.726 356.224 605.446 357.792 604.55 359.84C603.654 361.888 603.206 364.352 603.206 367.232V368C603.206 372.864 604.326 376.448 606.566 378.752C608.87 381.056 612.262 382.208 616.742 382.208C618.278 382.208 620.038 382.016 622.022 381.632C624.006 381.248 625.862 380.64 627.59 379.808C629.062 379.104 630.374 378.88 631.526 379.136C632.678 379.328 633.574 379.84 634.214 380.672C634.854 381.504 635.206 382.464 635.27 383.552C635.398 384.64 635.174 385.728 634.598 386.816C634.022 387.84 633.062 388.704 631.718 389.408C629.542 390.624 627.078 391.52 624.326 392.096C621.638 392.736 619.014 393.056 616.454 393.056ZM661.654 393.056C655.958 393.056 651.702 391.488 648.886 388.352C646.07 385.152 644.662 380.416 644.662 374.144V330.848C644.662 328.416 645.27 326.592 646.486 325.376C647.766 324.096 649.59 323.456 651.958 323.456C654.262 323.456 656.022 324.096 657.238 325.376C658.518 326.592 659.158 328.416 659.158 330.848V373.568C659.158 376.192 659.702 378.144 660.79 379.424C661.942 380.64 663.446 381.248 665.302 381.248C665.814 381.248 666.294 381.216 666.742 381.152C667.19 381.088 667.67 381.056 668.182 381.056C669.206 380.928 669.91 381.248 670.294 382.016C670.742 382.72 670.966 384.16 670.966 386.336C670.966 388.256 670.582 389.728 669.814 390.752C669.046 391.712 667.862 392.352 666.262 392.672C665.622 392.736 664.886 392.8 664.054 392.864C663.222 392.992 662.422 393.056 661.654 393.056ZM719.379 393.056C715.923 393.056 712.819 392.384 710.067 391.04C707.315 389.696 705.171 387.872 703.635 385.568C702.099 383.264 701.331 380.672 701.331 377.792C701.331 374.336 702.227 371.616 704.019 369.632C705.811 367.584 708.723 366.144 712.755 365.312C716.787 364.416 722.131 363.968 728.787 363.968H733.875V371.456H728.883C725.619 371.456 722.963 371.648 720.915 372.032C718.931 372.352 717.491 372.928 716.595 373.76C715.763 374.592 715.347 375.744 715.347 377.216C715.347 379.008 715.955 380.48 717.171 381.632C718.451 382.784 720.275 383.36 722.643 383.36C724.499 383.36 726.131 382.944 727.539 382.112C729.011 381.216 730.163 380.032 730.995 378.56C731.827 377.024 732.243 375.296 732.243 373.376V362.336C732.243 359.52 731.603 357.536 730.323 356.384C729.043 355.168 726.867 354.56 723.795 354.56C722.067 354.56 720.179 354.784 718.131 355.232C716.147 355.616 713.939 356.288 711.507 357.248C710.099 357.888 708.851 358.048 707.763 357.728C706.675 357.344 705.843 356.704 705.267 355.808C704.691 354.848 704.403 353.824 704.403 352.736C704.403 351.584 704.723 350.496 705.363 349.472C706.003 348.384 707.059 347.584 708.531 347.072C711.539 345.856 714.355 345.024 716.979 344.576C719.667 344.128 722.131 343.904 724.371 343.904C729.299 343.904 733.331 344.64 736.467 346.112C739.667 347.52 742.067 349.728 743.667 352.736C745.267 355.68 746.067 359.488 746.067 364.16V385.472C746.067 387.84 745.491 389.664 744.339 390.944C743.187 392.224 741.523 392.864 739.347 392.864C737.171 392.864 735.475 392.224 734.259 390.944C733.107 389.664 732.531 387.84 732.531 385.472V381.92L733.203 382.496C732.819 384.672 731.987 386.56 730.707 388.16C729.491 389.696 727.923 390.912 726.003 391.808C724.083 392.64 721.875 393.056 719.379 393.056ZM764.177 392.864C761.809 392.864 759.985 392.224 758.705 390.944C757.489 389.664 756.881 387.84 756.881 385.472V351.392C756.881 349.024 757.489 347.232 758.705 346.016C759.985 344.736 761.745 344.096 763.984 344.096C766.289 344.096 768.049 344.736 769.265 346.016C770.481 347.232 771.089 349.024 771.089 351.392V356.864L770.033 353.696C771.505 350.56 773.681 348.16 776.561 346.496C779.505 344.768 782.833 343.904 786.545 343.904C790.321 343.904 793.425 344.64 795.857 346.112C798.289 347.52 800.113 349.696 801.329 352.64C802.545 355.52 803.153 359.2 803.153 363.68V385.472C803.153 387.84 802.513 389.664 801.233 390.944C800.017 392.224 798.225 392.864 795.857 392.864C793.553 392.864 791.761 392.224 790.481 390.944C789.265 389.664 788.657 387.84 788.657 385.472V364.352C788.657 361.088 788.049 358.752 786.833 357.344C785.681 355.872 783.889 355.136 781.457 355.136C778.385 355.136 775.921 356.096 774.065 358.016C772.273 359.936 771.377 362.496 771.377 365.696V385.472C771.377 390.4 768.977 392.864 764.177 392.864ZM821.27 392.768C818.902 392.768 817.078 392.096 815.798 390.752C814.582 389.344 813.974 387.392 813.974 384.896V352.064C813.974 349.504 814.582 347.552 815.798 346.208C817.078 344.8 818.902 344.096 821.27 344.096C823.574 344.096 825.334 344.8 826.55 346.208C827.83 347.552 828.47 349.504 828.47 352.064V384.896C828.47 387.392 827.862 389.344 826.646 390.752C825.43 392.096 823.638 392.768 821.27 392.768ZM821.27 336.224C818.582 336.224 816.502 335.616 815.03 334.4C813.622 333.12 812.918 331.328 812.918 329.024C812.918 326.656 813.622 324.864 815.03 323.648C816.502 322.368 818.582 321.728 821.27 321.728C823.958 321.728 826.006 322.368 827.414 323.648C828.822 324.864 829.526 326.656 829.526 329.024C829.526 331.328 828.822 333.12 827.414 334.4C826.006 335.616 823.958 336.224 821.27 336.224ZM889.61 393.056C885.194 393.056 881.482 392.32 878.474 390.848C875.53 389.376 873.322 387.232 871.85 384.416C870.442 381.6 869.738 378.048 869.738 373.76V355.712H865.706C863.914 355.712 862.506 355.232 861.482 354.272C860.522 353.312 860.042 352 860.042 350.336C860.042 348.544 860.522 347.2 861.482 346.304C862.506 345.344 863.914 344.864 865.706 344.864H869.738V337.568C869.738 335.136 870.378 333.312 871.658 332.096C872.938 330.816 874.73 330.176 877.034 330.176C879.402 330.176 881.194 330.816 882.41 332.096C883.626 333.312 884.234 335.136 884.234 337.568V344.864H893.354C895.146 344.864 896.522 345.344 897.482 346.304C898.442 347.2 898.922 348.544 898.922 350.336C898.922 352 898.442 353.312 897.482 354.272C896.522 355.232 895.146 355.712 893.354 355.712H884.234V373.184C884.234 375.872 884.842 377.888 886.058 379.232C887.338 380.576 889.354 381.248 892.106 381.248C893.066 381.248 893.962 381.152 894.794 380.96C895.626 380.768 896.394 380.64 897.098 380.576C897.994 380.512 898.73 380.8 899.306 381.44C899.882 382.016 900.17 383.328 900.17 385.376C900.17 386.912 899.914 388.256 899.402 389.408C898.89 390.56 897.994 391.392 896.714 391.904C895.882 392.224 894.73 392.48 893.258 392.672C891.85 392.928 890.634 393.056 889.61 393.056ZM921.223 393.056C917.767 393.056 914.663 392.384 911.911 391.04C909.159 389.696 907.015 387.872 905.479 385.568C903.943 383.264 903.175 380.672 903.175 377.792C903.175 374.336 904.071 371.616 905.863 369.632C907.655 367.584 910.567 366.144 914.599 365.312C918.631 364.416 923.975 363.968 930.631 363.968H935.719V371.456H930.727C927.463 371.456 924.807 371.648 922.759 372.032C920.775 372.352 919.335 372.928 918.439 373.76C917.607 374.592 917.191 375.744 917.191 377.216C917.191 379.008 917.799 380.48 919.015 381.632C920.295 382.784 922.119 383.36 924.487 383.36C926.343 383.36 927.975 382.944 929.383 382.112C930.855 381.216 932.007 380.032 932.839 378.56C933.671 377.024 934.087 375.296 934.087 373.376V362.336C934.087 359.52 933.447 357.536 932.167 356.384C930.887 355.168 928.711 354.56 925.639 354.56C923.911 354.56 922.023 354.784 919.975 355.232C917.991 355.616 915.783 356.288 913.351 357.248C911.943 357.888 910.695 358.048 909.607 357.728C908.519 357.344 907.687 356.704 907.111 355.808C906.535 354.848 906.247 353.824 906.247 352.736C906.247 351.584 906.567 350.496 907.207 349.472C907.847 348.384 908.903 347.584 910.375 347.072C913.383 345.856 916.199 345.024 918.823 344.576C921.511 344.128 923.975 343.904 926.215 343.904C931.143 343.904 935.175 344.64 938.311 346.112C941.511 347.52 943.911 349.728 945.511 352.736C947.111 355.68 947.911 359.488 947.911 364.16V385.472C947.911 387.84 947.335 389.664 946.183 390.944C945.031 392.224 943.367 392.864 941.191 392.864C939.015 392.864 937.319 392.224 936.103 390.944C934.951 389.664 934.375 387.84 934.375 385.472V381.92L935.047 382.496C934.663 384.672 933.831 386.56 932.551 388.16C931.335 389.696 929.767 390.912 927.847 391.808C925.927 392.64 923.719 393.056 921.223 393.056ZM966.02 392.864C963.652 392.864 961.828 392.224 960.548 390.944C959.332 389.664 958.724 387.84 958.724 385.472V330.848C958.724 328.416 959.332 326.592 960.548 325.376C961.828 324.096 963.652 323.456 966.02 323.456C968.324 323.456 970.084 324.096 971.3 325.376C972.58 326.592 973.22 328.416 973.22 330.848V364.352H973.412L987.332 348.896C988.74 347.296 990.02 346.112 991.172 345.344C992.388 344.512 993.988 344.096 995.972 344.096C997.956 344.096 999.46 344.608 1000.48 345.632C1001.57 346.656 1002.12 347.904 1002.12 349.376C1002.18 350.784 1001.57 352.224 1000.29 353.696L985.604 370.112V364.64L1001.92 383.456C1003.14 384.928 1003.65 386.4 1003.46 387.872C1003.33 389.344 1002.69 390.56 1001.54 391.52C1000.39 392.416 998.916 392.864 997.124 392.864C994.948 392.864 993.188 392.448 991.844 391.616C990.564 390.784 989.252 389.504 987.908 387.776L973.412 371.648H973.22V385.472C973.22 390.4 970.82 392.864 966.02 392.864ZM1056.44 393.056C1052.48 393.056 1049.18 392.32 1046.56 390.848C1043.93 389.376 1041.98 387.168 1040.7 384.224C1039.48 381.216 1038.88 377.504 1038.88 373.088V351.392C1038.88 348.96 1039.48 347.136 1040.7 345.92C1041.98 344.704 1043.77 344.096 1046.08 344.096C1048.38 344.096 1050.17 344.704 1051.45 345.92C1052.73 347.136 1053.37 348.96 1053.37 351.392V373.472C1053.37 376.288 1053.95 378.4 1055.1 379.808C1056.25 381.152 1058.08 381.824 1060.57 381.824C1063.32 381.824 1065.56 380.864 1067.29 378.944C1069.08 376.96 1069.98 374.368 1069.98 371.168V351.392C1069.98 348.96 1070.59 347.136 1071.8 345.92C1073.08 344.704 1074.88 344.096 1077.18 344.096C1079.55 344.096 1081.34 344.704 1082.56 345.92C1083.84 347.136 1084.48 348.96 1084.48 351.392V385.472C1084.48 390.4 1082.14 392.864 1077.47 392.864C1075.16 392.864 1073.4 392.224 1072.19 390.944C1070.97 389.664 1070.36 387.84 1070.36 385.472V379.04L1071.8 382.784C1070.4 386.048 1068.38 388.576 1065.76 390.368C1063.13 392.16 1060.03 393.056 1056.44 393.056ZM1067 337.952C1066.24 338.976 1065.31 339.552 1064.22 339.68C1063.2 339.808 1062.2 339.616 1061.24 339.104C1060.28 338.592 1059.58 337.856 1059.13 336.896C1058.75 335.872 1058.84 334.784 1059.42 333.632L1066.24 320.096C1066.88 318.688 1067.74 317.792 1068.83 317.408C1069.98 317.024 1071.13 316.992 1072.28 317.312C1073.5 317.632 1074.52 318.208 1075.36 319.04C1076.25 319.808 1076.8 320.768 1076.99 321.92C1077.18 323.072 1076.83 324.256 1075.93 325.472L1067 337.952ZM1099.73 392C1098.32 392 1097.13 391.648 1096.17 390.944C1095.21 390.176 1094.57 389.216 1094.25 388.064C1093.93 386.912 1093.93 385.664 1094.25 384.32C1094.64 382.976 1095.37 381.728 1096.46 380.576L1119.98 352.352V355.712H1099.15C1097.42 355.712 1096.08 355.232 1095.12 354.272C1094.16 353.312 1093.68 352 1093.68 350.336C1093.68 348.544 1094.16 347.2 1095.12 346.304C1096.08 345.344 1097.42 344.864 1099.15 344.864H1126.89C1128.62 344.864 1130 345.248 1131.02 346.016C1132.05 346.784 1132.72 347.744 1133.04 348.896C1133.42 349.984 1133.45 351.2 1133.13 352.544C1132.88 353.824 1132.21 355.04 1131.12 356.192L1107.02 384.992V381.248H1129.29C1132.94 381.248 1134.77 383.04 1134.77 386.624C1134.77 388.352 1134.29 389.696 1133.33 390.656C1132.37 391.552 1131.02 392 1129.29 392H1099.73ZM1113.74 340.64C1112.01 340.64 1110.48 340.192 1109.13 339.296C1107.79 338.336 1106.67 337.024 1105.77 335.36L1099.53 323.936C1098.89 322.784 1098.73 321.728 1099.05 320.768C1099.44 319.744 1100.08 319.008 1100.97 318.56C1101.87 318.048 1102.83 317.888 1103.85 318.08C1104.88 318.208 1105.74 318.784 1106.45 319.808L1113.74 330.848L1121.04 319.808C1121.74 318.784 1122.61 318.208 1123.63 318.08C1124.65 317.888 1125.61 318.048 1126.51 318.56C1127.41 319.008 1128.01 319.744 1128.33 320.768C1128.72 321.728 1128.59 322.784 1127.95 323.936L1121.81 335.36C1120.91 337.024 1119.79 338.336 1118.45 339.296C1117.1 340.192 1115.53 340.64 1113.74 340.64ZM1157.29 393.056C1153.83 393.056 1150.73 392.384 1147.97 391.04C1145.22 389.696 1143.08 387.872 1141.54 385.568C1140.01 383.264 1139.24 380.672 1139.24 377.792C1139.24 374.336 1140.13 371.616 1141.93 369.632C1143.72 367.584 1146.63 366.144 1150.66 365.312C1154.69 364.416 1160.04 363.968 1166.69 363.968H1171.78V371.456H1166.79C1163.53 371.456 1160.87 371.648 1158.82 372.032C1156.84 372.352 1155.4 372.928 1154.5 373.76C1153.67 374.592 1153.25 375.744 1153.25 377.216C1153.25 379.008 1153.86 380.48 1155.08 381.632C1156.36 382.784 1158.18 383.36 1160.55 383.36C1162.41 383.36 1164.04 382.944 1165.45 382.112C1166.92 381.216 1168.07 380.032 1168.9 378.56C1169.73 377.024 1170.15 375.296 1170.15 373.376V362.336C1170.15 359.52 1169.51 357.536 1168.23 356.384C1166.95 355.168 1164.77 354.56 1161.7 354.56C1159.97 354.56 1158.09 354.784 1156.04 355.232C1154.05 355.616 1151.85 356.288 1149.41 357.248C1148.01 357.888 1146.76 358.048 1145.67 357.728C1144.58 357.344 1143.75 356.704 1143.17 355.808C1142.6 354.848 1142.31 353.824 1142.31 352.736C1142.31 351.584 1142.63 350.496 1143.27 349.472C1143.91 348.384 1144.97 347.584 1146.44 347.072C1149.45 345.856 1152.26 345.024 1154.89 344.576C1157.57 344.128 1160.04 343.904 1162.28 343.904C1167.21 343.904 1171.24 344.64 1174.37 346.112C1177.57 347.52 1179.97 349.728 1181.57 352.736C1183.17 355.68 1183.97 359.488 1183.97 364.16V385.472C1183.97 387.84 1183.4 389.664 1182.25 390.944C1181.09 392.224 1179.43 392.864 1177.25 392.864C1175.08 392.864 1173.38 392.224 1172.17 390.944C1171.01 389.664 1170.44 387.84 1170.44 385.472V381.92L1171.11 382.496C1170.73 384.672 1169.89 386.56 1168.61 388.16C1167.4 389.696 1165.83 390.912 1163.91 391.808C1161.99 392.64 1159.78 393.056 1157.29 393.056ZM1212.83 393.056C1210.02 393.056 1207.11 392.8 1204.1 392.288C1201.15 391.776 1198.47 390.912 1196.03 389.696C1194.75 389.056 1193.83 388.256 1193.25 387.296C1192.74 386.272 1192.51 385.248 1192.58 384.224C1192.64 383.2 1192.96 382.272 1193.54 381.44C1194.18 380.608 1194.98 380.064 1195.94 379.808C1196.96 379.488 1198.08 379.584 1199.3 380.096C1201.92 381.184 1204.32 381.952 1206.5 382.4C1208.67 382.848 1210.82 383.072 1212.93 383.072C1215.68 383.072 1217.67 382.656 1218.88 381.824C1220.16 380.928 1220.8 379.776 1220.8 378.368C1220.8 377.088 1220.39 376.128 1219.55 375.488C1218.72 374.848 1217.51 374.4 1215.91 374.144L1205.83 372.32C1201.86 371.616 1198.79 370.176 1196.61 368C1194.5 365.76 1193.44 362.912 1193.44 359.456C1193.44 356.256 1194.34 353.504 1196.13 351.2C1197.92 348.832 1200.39 347.04 1203.52 345.824C1206.72 344.544 1210.34 343.904 1214.37 343.904C1217.25 343.904 1219.91 344.16 1222.34 344.672C1224.77 345.184 1227.11 346.016 1229.35 347.168C1230.5 347.744 1231.3 348.512 1231.75 349.472C1232.26 350.432 1232.42 351.424 1232.23 352.448C1232.1 353.472 1231.71 354.4 1231.07 355.232C1230.43 356.064 1229.6 356.608 1228.58 356.864C1227.62 357.12 1226.5 356.992 1225.22 356.48C1223.17 355.52 1221.28 354.848 1219.55 354.464C1217.83 354.016 1216.16 353.792 1214.56 353.792C1211.68 353.792 1209.6 354.272 1208.32 355.232C1207.04 356.128 1206.4 357.28 1206.4 358.688C1206.4 359.776 1206.75 360.704 1207.46 361.472C1208.23 362.176 1209.38 362.656 1210.91 362.912L1220.99 364.736C1225.15 365.44 1228.32 366.848 1230.5 368.96C1232.67 371.008 1233.76 373.824 1233.76 377.408C1233.76 382.272 1231.84 386.112 1228 388.928C1224.23 391.68 1219.17 393.056 1212.83 393.056ZM1249.33 392.864C1246.96 392.864 1245.14 392.224 1243.86 390.944C1242.64 389.664 1242.04 387.84 1242.04 385.472V351.392C1242.04 349.024 1242.64 347.232 1243.86 346.016C1245.14 344.736 1246.9 344.096 1249.14 344.096C1251.44 344.096 1253.2 344.736 1254.42 346.016C1255.64 347.232 1256.24 349.024 1256.24 351.392V356.864L1255.19 353.696C1256.66 350.56 1258.84 348.16 1261.72 346.496C1264.66 344.768 1267.99 343.904 1271.7 343.904C1275.48 343.904 1278.58 344.64 1281.01 346.112C1283.44 347.52 1285.27 349.696 1286.48 352.64C1287.7 355.52 1288.31 359.2 1288.31 363.68V385.472C1288.31 387.84 1287.67 389.664 1286.39 390.944C1285.17 392.224 1283.38 392.864 1281.01 392.864C1278.71 392.864 1276.92 392.224 1275.64 390.944C1274.42 389.664 1273.81 387.84 1273.81 385.472V364.352C1273.81 361.088 1273.2 358.752 1271.99 357.344C1270.84 355.872 1269.04 355.136 1266.61 355.136C1263.54 355.136 1261.08 356.096 1259.22 358.016C1257.43 359.936 1256.53 362.496 1256.53 365.696V385.472C1256.53 390.4 1254.13 392.864 1249.33 392.864ZM1315.07 393.056C1311.61 393.056 1308.51 392.384 1305.75 391.04C1303 389.696 1300.86 387.872 1299.32 385.568C1297.79 383.264 1297.02 380.672 1297.02 377.792C1297.02 374.336 1297.91 371.616 1299.71 369.632C1301.5 367.584 1304.41 366.144 1308.44 365.312C1312.47 364.416 1317.82 363.968 1324.47 363.968H1329.56V371.456H1324.57C1321.31 371.456 1318.65 371.648 1316.6 372.032C1314.62 372.352 1313.18 372.928 1312.28 373.76C1311.45 374.592 1311.03 375.744 1311.03 377.216C1311.03 379.008 1311.64 380.48 1312.86 381.632C1314.14 382.784 1315.96 383.36 1318.33 383.36C1320.19 383.36 1321.82 382.944 1323.23 382.112C1324.7 381.216 1325.85 380.032 1326.68 378.56C1327.51 377.024 1327.93 375.296 1327.93 373.376V362.336C1327.93 359.52 1327.29 357.536 1326.01 356.384C1324.73 355.168 1322.55 354.56 1319.48 354.56C1317.75 354.56 1315.87 354.784 1313.82 355.232C1311.83 355.616 1309.63 356.288 1307.19 357.248C1305.79 357.888 1304.54 358.048 1303.45 357.728C1302.36 357.344 1301.53 356.704 1300.95 355.808C1300.38 354.848 1300.09 353.824 1300.09 352.736C1300.09 351.584 1300.41 350.496 1301.05 349.472C1301.69 348.384 1302.75 347.584 1304.22 347.072C1307.23 345.856 1310.04 345.024 1312.67 344.576C1315.35 344.128 1317.82 343.904 1320.06 343.904C1324.99 343.904 1329.02 344.64 1332.15 346.112C1335.35 347.52 1337.75 349.728 1339.35 352.736C1340.95 355.68 1341.75 359.488 1341.75 364.16V385.472C1341.75 387.84 1341.18 389.664 1340.03 390.944C1338.87 392.224 1337.21 392.864 1335.03 392.864C1332.86 392.864 1331.16 392.224 1329.95 390.944C1328.79 389.664 1328.22 387.84 1328.22 385.472V381.92L1328.89 382.496C1328.51 384.672 1327.67 386.56 1326.39 388.16C1325.18 389.696 1323.61 390.912 1321.69 391.808C1319.77 392.64 1317.56 393.056 1315.07 393.056ZM1326.01 338.048C1325.24 339.072 1324.31 339.648 1323.23 339.776C1322.2 339.904 1321.21 339.712 1320.25 339.2C1319.29 338.688 1318.59 337.952 1318.14 336.992C1317.75 335.968 1317.85 334.88 1318.43 333.728L1325.24 320.192C1325.88 318.784 1326.75 317.888 1327.83 317.504C1328.99 317.12 1330.14 317.088 1331.29 317.408C1332.51 317.728 1333.53 318.304 1334.36 319.136C1335.26 319.904 1335.8 320.864 1335.99 322.016C1336.19 323.168 1335.83 324.352 1334.94 325.568L1326.01 338.048ZM1397.43 393.056C1394.61 393.056 1391.7 392.8 1388.69 392.288C1385.75 391.776 1383.06 390.912 1380.63 389.696C1379.35 389.056 1378.42 388.256 1377.84 387.296C1377.33 386.272 1377.11 385.248 1377.17 384.224C1377.24 383.2 1377.56 382.272 1378.13 381.44C1378.77 380.608 1379.57 380.064 1380.53 379.808C1381.56 379.488 1382.68 379.584 1383.89 380.096C1386.52 381.184 1388.92 381.952 1391.09 382.4C1393.27 382.848 1395.41 383.072 1397.52 383.072C1400.28 383.072 1402.26 382.656 1403.48 381.824C1404.76 380.928 1405.4 379.776 1405.4 378.368C1405.4 377.088 1404.98 376.128 1404.15 375.488C1403.32 374.848 1402.1 374.4 1400.5 374.144L1390.42 372.32C1386.45 371.616 1383.38 370.176 1381.2 368C1379.09 365.76 1378.04 362.912 1378.04 359.456C1378.04 356.256 1378.93 353.504 1380.72 351.2C1382.52 348.832 1384.98 347.04 1388.12 345.824C1391.32 344.544 1394.93 343.904 1398.96 343.904C1401.84 343.904 1404.5 344.16 1406.93 344.672C1409.36 345.184 1411.7 346.016 1413.94 347.168C1415.09 347.744 1415.89 348.512 1416.34 349.472C1416.85 350.432 1417.01 351.424 1416.82 352.448C1416.69 353.472 1416.31 354.4 1415.67 355.232C1415.03 356.064 1414.2 356.608 1413.17 356.864C1412.21 357.12 1411.09 356.992 1409.81 356.48C1407.76 355.52 1405.88 354.848 1404.15 354.464C1402.42 354.016 1400.76 353.792 1399.16 353.792C1396.28 353.792 1394.2 354.272 1392.92 355.232C1391.64 356.128 1391 357.28 1391 358.688C1391 359.776 1391.35 360.704 1392.05 361.472C1392.82 362.176 1393.97 362.656 1395.51 362.912L1405.59 364.736C1409.75 365.44 1412.92 366.848 1415.09 368.96C1417.27 371.008 1418.36 373.824 1418.36 377.408C1418.36 382.272 1416.44 386.112 1412.6 388.928C1408.82 391.68 1403.76 393.056 1397.43 393.056ZM1398.29 340.64C1396.56 340.64 1395.03 340.192 1393.68 339.296C1392.34 338.336 1391.22 337.024 1390.32 335.36L1384.08 323.936C1383.44 322.784 1383.28 321.728 1383.6 320.768C1383.99 319.744 1384.63 319.008 1385.52 318.56C1386.42 318.048 1387.38 317.888 1388.4 318.08C1389.43 318.208 1390.29 318.784 1391 319.808L1398.29 330.848L1405.59 319.808C1406.29 318.784 1407.16 318.208 1408.18 318.08C1409.2 317.888 1410.16 318.048 1411.06 318.56C1411.96 319.008 1412.56 319.744 1412.88 320.768C1413.27 321.728 1413.14 322.784 1412.5 323.936L1406.36 335.36C1405.46 337.024 1404.34 338.336 1403 339.296C1401.65 340.192 1400.08 340.64 1398.29 340.64ZM1433.93 392.864C1431.56 392.864 1429.73 392.224 1428.45 390.944C1427.24 389.664 1426.63 387.84 1426.63 385.472V330.848C1426.63 328.416 1427.24 326.592 1428.45 325.376C1429.73 324.096 1431.56 323.456 1433.93 323.456C1436.23 323.456 1437.99 324.096 1439.21 325.376C1440.49 326.592 1441.13 328.416 1441.13 330.848V364.352H1441.32L1455.24 348.896C1456.65 347.296 1457.93 346.112 1459.08 345.344C1460.29 344.512 1461.89 344.096 1463.88 344.096C1465.86 344.096 1467.37 344.608 1468.39 345.632C1469.48 346.656 1470.02 347.904 1470.02 349.376C1470.09 350.784 1469.48 352.224 1468.2 353.696L1453.51 370.112V364.64L1469.83 383.456C1471.05 384.928 1471.56 386.4 1471.37 387.872C1471.24 389.344 1470.6 390.56 1469.45 391.52C1468.29 392.416 1466.82 392.864 1465.03 392.864C1462.85 392.864 1461.09 392.448 1459.75 391.616C1458.47 390.784 1457.16 389.504 1455.81 387.776L1441.32 371.648H1441.13V385.472C1441.13 390.4 1438.73 392.864 1433.93 392.864ZM1502.07 393.056C1497.01 393.056 1492.6 392.064 1488.82 390.08C1485.11 388.096 1482.23 385.248 1480.18 381.536C1478.13 377.824 1477.11 373.44 1477.11 368.384C1477.11 364.608 1477.68 361.216 1478.84 358.208C1479.99 355.2 1481.65 352.64 1483.83 350.528C1486.07 348.352 1488.72 346.72 1491.8 345.632C1494.87 344.48 1498.29 343.904 1502.07 343.904C1507.12 343.904 1511.51 344.896 1515.22 346.88C1519 348.864 1521.91 351.68 1523.96 355.328C1526.07 358.976 1527.12 363.328 1527.12 368.384C1527.12 372.224 1526.52 375.648 1525.3 378.656C1524.15 381.664 1522.48 384.256 1520.31 386.432C1518.13 388.608 1515.48 390.272 1512.34 391.424C1509.27 392.512 1505.84 393.056 1502.07 393.056ZM1502.07 382.208C1504.18 382.208 1506 381.696 1507.54 380.672C1509.08 379.648 1510.29 378.144 1511.19 376.16C1512.08 374.112 1512.53 371.52 1512.53 368.384C1512.53 363.712 1511.57 360.288 1509.65 358.112C1507.73 355.872 1505.2 354.752 1502.07 354.752C1500.02 354.752 1498.2 355.232 1496.6 356.192C1495.06 357.152 1493.84 358.656 1492.95 360.704C1492.12 362.688 1491.7 365.248 1491.7 368.384C1491.7 373.056 1492.66 376.544 1494.58 378.848C1496.5 381.088 1499 382.208 1502.07 382.208ZM1552.94 393.056C1547.24 393.056 1542.98 391.488 1540.17 388.352C1537.35 385.152 1535.94 380.416 1535.94 374.144V330.848C1535.94 328.416 1536.55 326.592 1537.77 325.376C1539.05 324.096 1540.87 323.456 1543.24 323.456C1545.54 323.456 1547.3 324.096 1548.52 325.376C1549.8 326.592 1550.44 328.416 1550.44 330.848V373.568C1550.44 376.192 1550.98 378.144 1552.07 379.424C1553.22 380.64 1554.73 381.248 1556.58 381.248C1557.1 381.248 1557.58 381.216 1558.02 381.152C1558.47 381.088 1558.95 381.056 1559.46 381.056C1560.49 380.928 1561.19 381.248 1561.58 382.016C1562.02 382.72 1562.25 384.16 1562.25 386.336C1562.25 388.256 1561.86 389.728 1561.1 390.752C1560.33 391.712 1559.14 392.352 1557.54 392.672C1556.9 392.736 1556.17 392.8 1555.34 392.864C1554.5 392.992 1553.7 393.056 1552.94 393.056ZM1583.85 393.056C1580.39 393.056 1577.29 392.384 1574.54 391.04C1571.78 389.696 1569.64 387.872 1568.1 385.568C1566.57 383.264 1565.8 380.672 1565.8 377.792C1565.8 374.336 1566.7 371.616 1568.49 369.632C1570.28 367.584 1573.19 366.144 1577.22 365.312C1581.26 364.416 1586.6 363.968 1593.26 363.968H1598.34V371.456H1593.35C1590.09 371.456 1587.43 371.648 1585.38 372.032C1583.4 372.352 1581.96 372.928 1581.06 373.76C1580.23 374.592 1579.82 375.744 1579.82 377.216C1579.82 379.008 1580.42 380.48 1581.64 381.632C1582.92 382.784 1584.74 383.36 1587.11 383.36C1588.97 383.36 1590.6 382.944 1592.01 382.112C1593.48 381.216 1594.63 380.032 1595.46 378.56C1596.3 377.024 1596.71 375.296 1596.71 373.376V362.336C1596.71 359.52 1596.07 357.536 1594.79 356.384C1593.51 355.168 1591.34 354.56 1588.26 354.56C1586.54 354.56 1584.65 354.784 1582.6 355.232C1580.62 355.616 1578.41 356.288 1575.98 357.248C1574.57 357.888 1573.32 358.048 1572.23 357.728C1571.14 357.344 1570.31 356.704 1569.74 355.808C1569.16 354.848 1568.87 353.824 1568.87 352.736C1568.87 351.584 1569.19 350.496 1569.83 349.472C1570.47 348.384 1571.53 347.584 1573 347.072C1576.01 345.856 1578.82 345.024 1581.45 344.576C1584.14 344.128 1586.6 343.904 1588.84 343.904C1593.77 343.904 1597.8 344.64 1600.94 346.112C1604.14 347.52 1606.54 349.728 1608.14 352.736C1609.74 355.68 1610.54 359.488 1610.54 364.16V385.472C1610.54 387.84 1609.96 389.664 1608.81 390.944C1607.66 392.224 1605.99 392.864 1603.82 392.864C1601.64 392.864 1599.94 392.224 1598.73 390.944C1597.58 389.664 1597 387.84 1597 385.472V381.92L1597.67 382.496C1597.29 384.672 1596.46 386.56 1595.18 388.16C1593.96 389.696 1592.39 390.912 1590.47 391.808C1588.55 392.64 1586.34 393.056 1583.85 393.056ZM356.328 541.048C354.6 541.112 353.224 540.824 352.2 540.184C351.176 539.544 350.472 538.712 350.088 537.688C349.704 536.728 349.608 535.736 349.8 534.712C349.928 533.688 350.344 532.792 351.048 532.024C351.752 531.256 352.712 530.808 353.928 530.68C356.424 530.488 358.216 529.784 359.304 528.568C360.456 527.416 361.032 525.624 361.032 523.192V482.392C361.032 480.024 361.672 478.232 362.952 477.016C364.232 475.736 366.024 475.096 368.328 475.096C370.632 475.096 372.392 475.736 373.608 477.016C374.888 478.232 375.528 480.024 375.528 482.392V521.848C375.528 526.072 374.824 529.56 373.416 532.312C372.072 535.064 369.992 537.144 367.176 538.552C364.36 540.024 360.744 540.856 356.328 541.048ZM368.232 467.224C365.608 467.224 363.56 466.616 362.088 465.4C360.68 464.12 359.976 462.328 359.976 460.024C359.976 457.656 360.68 455.864 362.088 454.648C363.56 453.368 365.608 452.728 368.232 452.728C370.92 452.728 372.968 453.368 374.376 454.648C375.784 455.864 376.488 457.656 376.488 460.024C376.488 462.328 375.784 464.12 374.376 465.4C372.968 466.616 370.92 467.224 368.232 467.224ZM402.738 524.056C399.282 524.056 396.178 523.384 393.426 522.04C390.674 520.696 388.53 518.872 386.994 516.568C385.458 514.264 384.69 511.672 384.69 508.792C384.69 505.336 385.586 502.616 387.378 500.632C389.17 498.584 392.082 497.144 396.114 496.312C400.146 495.416 405.49 494.968 412.146 494.968H417.234V502.456H412.242C408.978 502.456 406.322 502.648 404.274 503.032C402.29 503.352 400.85 503.928 399.954 504.76C399.122 505.592 398.706 506.744 398.706 508.216C398.706 510.008 399.314 511.48 400.53 512.632C401.81 513.784 403.634 514.36 406.002 514.36C407.858 514.36 409.49 513.944 410.898 513.112C412.37 512.216 413.522 511.032 414.354 509.56C415.186 508.024 415.602 506.296 415.602 504.376V493.336C415.602 490.52 414.962 488.536 413.682 487.384C412.402 486.168 410.226 485.56 407.154 485.56C405.426 485.56 403.538 485.784 401.49 486.232C399.506 486.616 397.298 487.288 394.866 488.248C393.458 488.888 392.21 489.048 391.122 488.728C390.034 488.344 389.202 487.704 388.626 486.808C388.05 485.848 387.762 484.824 387.762 483.736C387.762 482.584 388.082 481.496 388.722 480.472C389.362 479.384 390.418 478.584 391.89 478.072C394.898 476.856 397.714 476.024 400.338 475.576C403.026 475.128 405.49 474.904 407.73 474.904C412.658 474.904 416.69 475.64 419.826 477.112C423.026 478.52 425.426 480.728 427.026 483.736C428.626 486.68 429.426 490.488 429.426 495.16V516.472C429.426 518.84 428.85 520.664 427.698 521.944C426.546 523.224 424.882 523.864 422.706 523.864C420.53 523.864 418.834 523.224 417.618 521.944C416.466 520.664 415.89 518.84 415.89 516.472V512.92L416.562 513.496C416.178 515.672 415.346 517.56 414.066 519.16C412.85 520.696 411.282 521.912 409.362 522.808C407.442 523.64 405.234 524.056 402.738 524.056ZM447.536 523.864C445.168 523.864 443.344 523.224 442.064 521.944C440.848 520.664 440.24 518.84 440.24 516.472V461.848C440.24 459.416 440.848 457.592 442.064 456.376C443.344 455.096 445.168 454.456 447.536 454.456C449.84 454.456 451.6 455.096 452.816 456.376C454.096 457.592 454.736 459.416 454.736 461.848V495.352H454.928L468.848 479.896C470.256 478.296 471.536 477.112 472.688 476.344C473.904 475.512 475.504 475.096 477.488 475.096C479.472 475.096 480.976 475.608 482 476.632C483.088 477.656 483.632 478.904 483.632 480.376C483.696 481.784 483.088 483.224 481.808 484.696L467.12 501.112V495.64L483.44 514.456C484.656 515.928 485.168 517.4 484.976 518.872C484.848 520.344 484.208 521.56 483.056 522.52C481.904 523.416 480.432 523.864 478.64 523.864C476.464 523.864 474.704 523.448 473.36 522.616C472.08 521.784 470.768 520.504 469.424 518.776L454.928 502.648H454.736V516.472C454.736 521.4 452.336 523.864 447.536 523.864ZM515.677 524.056C510.621 524.056 506.205 523.064 502.429 521.08C498.717 519.096 495.837 516.248 493.789 512.536C491.741 508.824 490.717 504.44 490.717 499.384C490.717 495.608 491.293 492.216 492.445 489.208C493.597 486.2 495.261 483.64 497.437 481.528C499.677 479.352 502.333 477.72 505.405 476.632C508.477 475.48 511.901 474.904 515.677 474.904C520.733 474.904 525.117 475.896 528.829 477.88C532.605 479.864 535.517 482.68 537.565 486.328C539.677 489.976 540.733 494.328 540.733 499.384C540.733 503.224 540.125 506.648 538.909 509.656C537.757 512.664 536.093 515.256 533.917 517.432C531.741 519.608 529.085 521.272 525.949 522.424C522.877 523.512 519.453 524.056 515.677 524.056ZM515.677 513.208C517.789 513.208 519.613 512.696 521.149 511.672C522.685 510.648 523.901 509.144 524.797 507.16C525.693 505.112 526.141 502.52 526.141 499.384C526.141 494.712 525.181 491.288 523.261 489.112C521.341 486.872 518.813 485.752 515.677 485.752C513.629 485.752 511.805 486.232 510.205 487.192C508.669 488.152 507.453 489.656 506.557 491.704C505.725 493.688 505.309 496.248 505.309 499.384C505.309 504.056 506.269 507.544 508.189 509.848C510.109 512.088 512.605 513.208 515.677 513.208ZM611.117 524.056C603.501 524.056 597.037 522.616 591.725 519.736C586.477 516.856 582.477 512.824 579.725 507.64C576.973 502.456 575.597 496.376 575.597 489.4C575.597 484.024 576.397 479.192 577.997 474.904C579.661 470.552 582.029 466.872 585.101 463.864C588.237 460.792 592.013 458.424 596.429 456.76C600.909 455.096 605.965 454.264 611.597 454.264C615.053 454.264 618.509 454.648 621.965 455.416C625.421 456.184 628.749 457.464 631.949 459.256C633.293 460.024 634.189 461.016 634.637 462.232C635.149 463.384 635.277 464.632 635.021 465.976C634.829 467.256 634.317 468.408 633.485 469.432C632.717 470.392 631.693 471.032 630.413 471.352C629.197 471.608 627.789 471.352 626.189 470.584C624.077 469.432 621.837 468.6 619.469 468.088C617.101 467.512 614.509 467.224 611.693 467.224C607.149 467.224 603.341 468.088 600.269 469.816C597.197 471.48 594.893 473.976 593.357 477.304C591.885 480.568 591.149 484.6 591.149 489.4C591.149 496.632 592.877 502.104 596.333 505.816C599.853 509.528 605.037 511.384 611.885 511.384C614.189 511.384 616.557 511.16 618.989 510.712C621.421 510.264 623.821 509.624 626.189 508.792L623.405 514.84V496.408H614.765C612.845 496.408 611.373 495.928 610.349 494.968C609.325 494.008 608.813 492.696 608.813 491.032C608.813 489.304 609.325 487.992 610.349 487.096C611.373 486.136 612.845 485.656 614.765 485.656H629.837C631.757 485.656 633.197 486.168 634.157 487.192C635.181 488.216 635.693 489.688 635.693 491.608V513.88C635.693 515.544 635.373 516.952 634.733 518.104C634.093 519.256 633.005 520.088 631.469 520.6C628.589 521.624 625.357 522.456 621.773 523.096C618.189 523.736 614.637 524.056 611.117 524.056ZM680.255 524.056C673.599 524.056 667.743 522.616 662.687 519.736C657.695 516.792 653.791 512.696 650.975 507.448C648.223 502.2 646.847 496.088 646.847 489.112C646.847 483.8 647.615 479.032 649.151 474.808C650.751 470.52 653.023 466.872 655.967 463.864C658.911 460.792 662.431 458.424 666.527 456.76C670.687 455.096 675.263 454.264 680.255 454.264C687.039 454.264 692.927 455.704 697.919 458.584C702.911 461.464 706.783 465.528 709.535 470.776C712.351 475.96 713.759 482.04 713.759 489.016C713.759 494.328 712.959 499.128 711.359 503.416C709.759 507.704 707.487 511.384 704.543 514.456C701.599 517.528 698.079 519.896 693.983 521.56C689.887 523.224 685.311 524.056 680.255 524.056ZM680.255 511.384C684.031 511.384 687.231 510.52 689.855 508.792C692.543 507 694.591 504.44 695.999 501.112C697.471 497.72 698.207 493.72 698.207 489.112C698.207 482.072 696.639 476.632 693.503 472.792C690.367 468.888 685.951 466.936 680.255 466.936C676.543 466.936 673.343 467.8 670.655 469.528C667.967 471.256 665.919 473.784 664.511 477.112C663.103 480.44 662.399 484.44 662.399 489.112C662.399 496.088 663.967 501.56 667.103 505.528C670.239 509.432 674.623 511.384 680.255 511.384ZM732.757 523.864C730.325 523.864 728.469 523.192 727.189 521.848C725.909 520.504 725.269 518.616 725.269 516.184V462.136C725.269 459.704 725.909 457.816 727.189 456.472C728.469 455.128 730.325 454.456 732.757 454.456C735.125 454.456 736.949 455.128 738.229 456.472C739.509 457.816 740.149 459.704 740.149 462.136V482.488H771.637V462.136C771.637 459.704 772.277 457.816 773.557 456.472C774.837 455.128 776.661 454.456 779.029 454.456C781.461 454.456 783.317 455.128 784.597 456.472C785.877 457.816 786.517 459.704 786.517 462.136V516.184C786.517 518.616 785.877 520.504 784.597 521.848C783.317 523.192 781.461 523.864 779.029 523.864C776.661 523.864 774.837 523.192 773.557 521.848C772.277 520.504 771.637 518.616 771.637 516.184V494.872H740.149V516.184C740.149 518.616 739.509 520.504 738.229 521.848C737.013 523.192 735.189 523.864 732.757 523.864ZM833.036 523.864C830.668 523.864 828.844 523.224 827.564 521.944C826.348 520.664 825.74 518.84 825.74 516.472V482.392C825.74 480.024 826.348 478.232 827.564 477.016C828.844 475.736 830.604 475.096 832.844 475.096C835.148 475.096 836.908 475.736 838.124 477.016C839.34 478.232 839.948 480.024 839.948 482.392V487.864L838.892 484.696C840.364 481.56 842.54 479.16 845.42 477.496C848.364 475.768 851.692 474.904 855.404 474.904C859.18 474.904 862.284 475.64 864.716 477.112C867.148 478.52 868.972 480.696 870.188 483.64C871.404 486.52 872.012 490.2 872.012 494.68V516.472C872.012 518.84 871.372 520.664 870.092 521.944C868.876 523.224 867.084 523.864 864.716 523.864C862.412 523.864 860.62 523.224 859.34 521.944C858.124 520.664 857.516 518.84 857.516 516.472V495.352C857.516 492.088 856.908 489.752 855.692 488.344C854.54 486.872 852.748 486.136 850.316 486.136C847.244 486.136 844.78 487.096 842.924 489.016C841.132 490.936 840.236 493.496 840.236 496.696V516.472C840.236 521.4 837.836 523.864 833.036 523.864ZM907.314 524.056C901.746 524.056 896.946 523.064 892.914 521.08C888.946 519.032 885.874 516.184 883.698 512.536C881.586 508.824 880.53 504.472 880.53 499.48C880.53 494.616 881.554 490.36 883.602 486.712C885.65 483 888.498 480.12 892.146 478.072C895.858 475.96 900.05 474.904 904.722 474.904C908.114 474.904 911.186 475.48 913.938 476.632C916.69 477.72 919.058 479.32 921.042 481.432C923.026 483.48 924.53 486.008 925.554 489.016C926.578 491.96 927.09 495.256 927.09 498.904C927.09 500.12 926.706 501.048 925.938 501.688C925.17 502.264 924.05 502.552 922.578 502.552H892.434V495.064H916.626L915.09 496.408C915.09 493.784 914.706 491.608 913.938 489.88C913.17 488.088 912.05 486.744 910.578 485.848C909.17 484.952 907.41 484.504 905.298 484.504C902.93 484.504 900.914 485.048 899.25 486.136C897.586 487.224 896.306 488.792 895.41 490.84C894.514 492.888 894.066 495.352 894.066 498.232V499C894.066 503.864 895.186 507.448 897.426 509.752C899.73 512.056 903.122 513.208 907.602 513.208C909.138 513.208 910.898 513.016 912.882 512.632C914.866 512.248 916.722 511.64 918.45 510.808C919.922 510.104 921.234 509.88 922.386 510.136C923.538 510.328 924.434 510.84 925.074 511.672C925.714 512.504 926.066 513.464 926.13 514.552C926.258 515.64 926.034 516.728 925.458 517.816C924.882 518.84 923.922 519.704 922.578 520.408C920.402 521.624 917.938 522.52 915.186 523.096C912.498 523.736 909.874 524.056 907.314 524.056ZM943.009 523.864C940.641 523.864 938.817 523.224 937.537 521.944C936.321 520.664 935.713 518.84 935.713 516.472V482.392C935.713 480.024 936.321 478.232 937.537 477.016C938.817 475.736 940.577 475.096 942.817 475.096C945.121 475.096 946.881 475.736 948.097 477.016C949.313 478.232 949.921 480.024 949.921 482.392V488.536L948.865 484.696C950.145 481.752 952.129 479.384 954.817 477.592C957.505 475.8 960.673 474.904 964.321 474.904C967.969 474.904 971.009 475.768 973.441 477.496C975.873 479.224 977.601 481.88 978.625 485.464H977.281C978.689 482.2 980.833 479.64 983.713 477.784C986.657 475.864 990.017 474.904 993.793 474.904C997.441 474.904 1000.42 475.64 1002.72 477.112C1005.09 478.52 1006.85 480.696 1008 483.64C1009.15 486.52 1009.73 490.2 1009.73 494.68V516.472C1009.73 518.84 1009.09 520.664 1007.81 521.944C1006.59 523.224 1004.83 523.864 1002.53 523.864C1000.16 523.864 998.337 523.224 997.057 521.944C995.841 520.664 995.233 518.84 995.233 516.472V495.16C995.233 492.024 994.721 489.752 993.697 488.344C992.737 486.872 991.073 486.136 988.705 486.136C985.953 486.136 983.809 487.096 982.273 489.016C980.737 490.936 979.969 493.656 979.969 497.176V516.472C979.969 518.84 979.329 520.664 978.049 521.944C976.833 523.224 975.073 523.864 972.769 523.864C970.465 523.864 968.673 523.224 967.393 521.944C966.113 520.664 965.473 518.84 965.473 516.472V495.16C965.473 492.024 964.961 489.752 963.937 488.344C962.977 486.872 961.313 486.136 958.945 486.136C956.193 486.136 954.049 487.096 952.513 489.016C950.977 490.936 950.209 493.656 950.209 497.176V516.472C950.209 521.4 947.809 523.864 943.009 523.864ZM1036.77 524.056C1033.31 524.056 1030.21 523.384 1027.46 522.04C1024.71 520.696 1022.56 518.872 1021.03 516.568C1019.49 514.264 1018.72 511.672 1018.72 508.792C1018.72 505.336 1019.62 502.616 1021.41 500.632C1023.2 498.584 1026.11 497.144 1030.15 496.312C1034.18 495.416 1039.52 494.968 1046.18 494.968H1051.27V502.456H1046.27C1043.01 502.456 1040.35 502.648 1038.31 503.032C1036.32 503.352 1034.88 503.928 1033.99 504.76C1033.15 505.592 1032.74 506.744 1032.74 508.216C1032.74 510.008 1033.35 511.48 1034.56 512.632C1035.84 513.784 1037.67 514.36 1040.03 514.36C1041.89 514.36 1043.52 513.944 1044.93 513.112C1046.4 512.216 1047.55 511.032 1048.39 509.56C1049.22 508.024 1049.63 506.296 1049.63 504.376V493.336C1049.63 490.52 1048.99 488.536 1047.71 487.384C1046.43 486.168 1044.26 485.56 1041.19 485.56C1039.46 485.56 1037.57 485.784 1035.52 486.232C1033.54 486.616 1031.33 487.288 1028.9 488.248C1027.49 488.888 1026.24 489.048 1025.15 488.728C1024.07 488.344 1023.23 487.704 1022.66 486.808C1022.08 485.848 1021.79 484.824 1021.79 483.736C1021.79 482.584 1022.11 481.496 1022.75 480.472C1023.39 479.384 1024.45 478.584 1025.92 478.072C1028.93 476.856 1031.75 476.024 1034.37 475.576C1037.06 475.128 1039.52 474.904 1041.76 474.904C1046.69 474.904 1050.72 475.64 1053.86 477.112C1057.06 478.52 1059.46 480.728 1061.06 483.736C1062.66 486.68 1063.46 490.488 1063.46 495.16V516.472C1063.46 518.84 1062.88 520.664 1061.73 521.944C1060.58 523.224 1058.91 523.864 1056.74 523.864C1054.56 523.864 1052.87 523.224 1051.65 521.944C1050.5 520.664 1049.92 518.84 1049.92 516.472V512.92L1050.59 513.496C1050.21 515.672 1049.38 517.56 1048.1 519.16C1046.88 520.696 1045.31 521.912 1043.39 522.808C1041.47 523.64 1039.27 524.056 1036.77 524.056ZM1047.71 469.048C1046.95 470.072 1046.02 470.648 1044.93 470.776C1043.91 470.904 1042.91 470.712 1041.95 470.2C1040.99 469.688 1040.29 468.952 1039.84 467.992C1039.46 466.968 1039.55 465.88 1040.13 464.728L1046.95 451.192C1047.59 449.784 1048.45 448.888 1049.54 448.504C1050.69 448.12 1051.84 448.088 1052.99 448.408C1054.21 448.728 1055.23 449.304 1056.07 450.136C1056.96 450.904 1057.51 451.864 1057.7 453.016C1057.89 454.168 1057.54 455.352 1056.64 456.568L1047.71 469.048ZM1108.38 523.864C1106.01 523.864 1104.19 523.224 1102.91 521.944C1101.69 520.664 1101.08 518.84 1101.08 516.472V461.848C1101.08 459.416 1101.69 457.592 1102.91 456.376C1104.19 455.096 1106.01 454.456 1108.38 454.456C1110.68 454.456 1112.44 455.096 1113.66 456.376C1114.94 457.592 1115.58 459.416 1115.58 461.848V495.352H1115.77L1129.69 479.896C1131.1 478.296 1132.38 477.112 1133.53 476.344C1134.75 475.512 1136.35 475.096 1138.33 475.096C1140.32 475.096 1141.82 475.608 1142.84 476.632C1143.93 477.656 1144.48 478.904 1144.48 480.376C1144.54 481.784 1143.93 483.224 1142.65 484.696L1127.96 501.112V495.64L1144.28 514.456C1145.5 515.928 1146.01 517.4 1145.82 518.872C1145.69 520.344 1145.05 521.56 1143.9 522.52C1142.75 523.416 1141.28 523.864 1139.48 523.864C1137.31 523.864 1135.55 523.448 1134.2 522.616C1132.92 521.784 1131.61 520.504 1130.27 518.776L1115.77 502.648H1115.58V516.472C1115.58 521.4 1113.18 523.864 1108.38 523.864ZM1199.76 524.056C1195.67 524.056 1192.05 523.064 1188.92 521.08C1185.84 519.096 1183.44 516.248 1181.72 512.536C1179.99 508.824 1179.12 504.44 1179.12 499.384C1179.12 494.328 1179.99 489.976 1181.72 486.328C1183.44 482.68 1185.84 479.864 1188.92 477.88C1192.05 475.896 1195.67 474.904 1199.76 474.904C1203.48 474.904 1206.74 475.8 1209.56 477.592C1212.44 479.384 1214.39 481.72 1215.41 484.6H1214.36V461.848C1214.36 459.416 1214.96 457.592 1216.18 456.376C1217.4 455.096 1219.19 454.456 1221.56 454.456C1223.86 454.456 1225.65 455.096 1226.93 456.376C1228.21 457.592 1228.85 459.416 1228.85 461.848V516.472C1228.85 518.84 1228.21 520.664 1226.93 521.944C1225.72 523.224 1223.96 523.864 1221.65 523.864C1219.35 523.864 1217.56 523.224 1216.28 521.944C1215.06 520.664 1214.45 518.84 1214.45 516.472V509.944L1215.51 513.688C1214.61 516.824 1212.69 519.352 1209.75 521.272C1206.87 523.128 1203.54 524.056 1199.76 524.056ZM1204.08 513.208C1206.2 513.208 1208.02 512.696 1209.56 511.672C1211.09 510.648 1212.31 509.144 1213.2 507.16C1214.1 505.112 1214.55 502.52 1214.55 499.384C1214.55 494.712 1213.59 491.288 1211.67 489.112C1209.75 486.872 1207.22 485.752 1204.08 485.752C1202.04 485.752 1200.21 486.232 1198.61 487.192C1197.08 488.152 1195.86 489.656 1194.96 491.704C1194.13 493.688 1193.72 496.248 1193.72 499.384C1193.72 504.056 1194.68 507.544 1196.6 509.848C1198.52 512.088 1201.01 513.208 1204.08 513.208ZM1247.32 523.768C1244.95 523.768 1243.13 523.096 1241.85 521.752C1240.63 520.344 1240.02 518.392 1240.02 515.896V483.064C1240.02 480.504 1240.63 478.552 1241.85 477.208C1243.13 475.8 1244.95 475.096 1247.32 475.096C1249.62 475.096 1251.38 475.8 1252.6 477.208C1253.88 478.552 1254.52 480.504 1254.52 483.064V515.896C1254.52 518.392 1253.91 520.344 1252.69 521.752C1251.48 523.096 1249.69 523.768 1247.32 523.768ZM1247.32 467.224C1244.63 467.224 1242.55 466.616 1241.08 465.4C1239.67 464.12 1238.97 462.328 1238.97 460.024C1238.97 457.656 1239.67 455.864 1241.08 454.648C1242.55 453.368 1244.63 452.728 1247.32 452.728C1250.01 452.728 1252.05 453.368 1253.46 454.648C1254.87 455.864 1255.57 457.656 1255.57 460.024C1255.57 462.328 1254.87 464.12 1253.46 465.4C1252.05 466.616 1250.01 467.224 1247.32 467.224ZM1283.76 524.056C1280.94 524.056 1278.03 523.8 1275.02 523.288C1272.08 522.776 1269.39 521.912 1266.96 520.696C1265.68 520.056 1264.75 519.256 1264.17 518.296C1263.66 517.272 1263.44 516.248 1263.5 515.224C1263.56 514.2 1263.88 513.272 1264.46 512.44C1265.1 511.608 1265.9 511.064 1266.86 510.808C1267.88 510.488 1269 510.584 1270.22 511.096C1272.84 512.184 1275.24 512.952 1277.42 513.4C1279.6 513.848 1281.74 514.072 1283.85 514.072C1286.6 514.072 1288.59 513.656 1289.8 512.824C1291.08 511.928 1291.72 510.776 1291.72 509.368C1291.72 508.088 1291.31 507.128 1290.48 506.488C1289.64 505.848 1288.43 505.4 1286.83 505.144L1276.75 503.32C1272.78 502.616 1269.71 501.176 1267.53 499C1265.42 496.76 1264.36 493.912 1264.36 490.456C1264.36 487.256 1265.26 484.504 1267.05 482.2C1268.84 479.832 1271.31 478.04 1274.44 476.824C1277.64 475.544 1281.26 474.904 1285.29 474.904C1288.17 474.904 1290.83 475.16 1293.26 475.672C1295.69 476.184 1298.03 477.016 1300.27 478.168C1301.42 478.744 1302.22 479.512 1302.67 480.472C1303.18 481.432 1303.34 482.424 1303.15 483.448C1303.02 484.472 1302.64 485.4 1302 486.232C1301.36 487.064 1300.52 487.608 1299.5 487.864C1298.54 488.12 1297.42 487.992 1296.14 487.48C1294.09 486.52 1292.2 485.848 1290.48 485.464C1288.75 485.016 1287.08 484.792 1285.48 484.792C1282.6 484.792 1280.52 485.272 1279.24 486.232C1277.96 487.128 1277.32 488.28 1277.32 489.688C1277.32 490.776 1277.68 491.704 1278.38 492.472C1279.15 493.176 1280.3 493.656 1281.84 493.912L1291.92 495.736C1296.08 496.44 1299.24 497.848 1301.42 499.96C1303.6 502.008 1304.68 504.824 1304.68 508.408C1304.68 513.272 1302.76 517.112 1298.92 519.928C1295.15 522.68 1290.09 524.056 1283.76 524.056ZM1320.25 541.144C1317.89 541.144 1316.06 540.504 1314.78 539.224C1313.57 538.008 1312.96 536.184 1312.96 533.752V482.392C1312.96 480.024 1313.57 478.232 1314.78 477.016C1316.06 475.736 1317.82 475.096 1320.06 475.096C1322.43 475.096 1324.22 475.736 1325.44 477.016C1326.65 478.232 1327.26 480.024 1327.26 482.392V488.92L1326.21 485.176C1327.17 482.104 1329.09 479.64 1331.97 477.784C1334.91 475.864 1338.27 474.904 1342.05 474.904C1346.14 474.904 1349.73 475.896 1352.8 477.88C1355.93 479.864 1358.37 482.68 1360.09 486.328C1361.82 489.976 1362.69 494.328 1362.69 499.384C1362.69 504.44 1361.82 508.824 1360.09 512.536C1358.37 516.248 1355.97 519.096 1352.89 521.08C1349.82 523.064 1346.21 524.056 1342.05 524.056C1338.33 524.056 1335.04 523.16 1332.16 521.368C1329.28 519.512 1327.33 517.112 1326.3 514.168H1327.45V533.752C1327.45 536.184 1326.81 538.008 1325.53 539.224C1324.32 540.504 1322.56 541.144 1320.25 541.144ZM1337.73 513.208C1339.77 513.208 1341.57 512.696 1343.1 511.672C1344.7 510.648 1345.92 509.144 1346.75 507.16C1347.65 505.112 1348.09 502.52 1348.09 499.384C1348.09 494.712 1347.13 491.288 1345.21 489.112C1343.29 486.872 1340.8 485.752 1337.73 485.752C1335.68 485.752 1333.85 486.232 1332.25 487.192C1330.72 488.152 1329.5 489.656 1328.61 491.704C1327.71 493.688 1327.26 496.248 1327.26 499.384C1327.26 504.056 1328.22 507.544 1330.14 509.848C1332.06 512.088 1334.59 513.208 1337.73 513.208ZM1394.21 524.056C1389.15 524.056 1384.74 523.064 1380.96 521.08C1377.25 519.096 1374.37 516.248 1372.32 512.536C1370.27 508.824 1369.25 504.44 1369.25 499.384C1369.25 495.608 1369.82 492.216 1370.98 489.208C1372.13 486.2 1373.79 483.64 1375.97 481.528C1378.21 479.352 1380.86 477.72 1383.94 476.632C1387.01 475.48 1390.43 474.904 1394.21 474.904C1399.26 474.904 1403.65 475.896 1407.36 477.88C1411.14 479.864 1414.05 482.68 1416.1 486.328C1418.21 489.976 1419.26 494.328 1419.26 499.384C1419.26 503.224 1418.66 506.648 1417.44 509.656C1416.29 512.664 1414.62 515.256 1412.45 517.432C1410.27 519.608 1407.62 521.272 1404.48 522.424C1401.41 523.512 1397.98 524.056 1394.21 524.056ZM1394.21 513.208C1396.32 513.208 1398.14 512.696 1399.68 511.672C1401.22 510.648 1402.43 509.144 1403.33 507.16C1404.22 505.112 1404.67 502.52 1404.67 499.384C1404.67 494.712 1403.71 491.288 1401.79 489.112C1399.87 486.872 1397.34 485.752 1394.21 485.752C1392.16 485.752 1390.34 486.232 1388.74 487.192C1387.2 488.152 1385.98 489.656 1385.09 491.704C1384.26 493.688 1383.84 496.248 1383.84 499.384C1383.84 504.056 1384.8 507.544 1386.72 509.848C1388.64 512.088 1391.14 513.208 1394.21 513.208ZM1431.27 523C1429.86 523 1428.68 522.648 1427.72 521.944C1426.76 521.176 1426.12 520.216 1425.8 519.064C1425.48 517.912 1425.48 516.664 1425.8 515.32C1426.18 513.976 1426.92 512.728 1428.01 511.576L1451.53 483.352V486.712H1430.7C1428.97 486.712 1427.62 486.232 1426.66 485.272C1425.7 484.312 1425.22 483 1425.22 481.336C1425.22 479.544 1425.7 478.2 1426.66 477.304C1427.62 476.344 1428.97 475.864 1430.7 475.864H1458.44C1460.17 475.864 1461.54 476.248 1462.57 477.016C1463.59 477.784 1464.26 478.744 1464.58 479.896C1464.97 480.984 1465 482.2 1464.68 483.544C1464.42 484.824 1463.75 486.04 1462.66 487.192L1438.57 515.992V512.248H1460.84C1464.49 512.248 1466.31 514.04 1466.31 517.624C1466.31 519.352 1465.83 520.696 1464.87 521.656C1463.91 522.552 1462.57 523 1460.84 523H1431.27ZM1480.66 523.768C1478.29 523.768 1476.47 523.096 1475.19 521.752C1473.97 520.344 1473.36 518.392 1473.36 515.896V483.064C1473.36 480.504 1473.97 478.552 1475.19 477.208C1476.47 475.8 1478.29 475.096 1480.66 475.096C1482.96 475.096 1484.72 475.8 1485.94 477.208C1487.22 478.552 1487.86 480.504 1487.86 483.064V515.896C1487.86 518.392 1487.25 520.344 1486.04 521.752C1484.82 523.096 1483.03 523.768 1480.66 523.768ZM1480.66 467.224C1477.97 467.224 1475.89 466.616 1474.42 465.4C1473.01 464.12 1472.31 462.328 1472.31 460.024C1472.31 457.656 1473.01 455.864 1474.42 454.648C1475.89 453.368 1477.97 452.728 1480.66 452.728C1483.35 452.728 1485.4 453.368 1486.8 454.648C1488.21 455.864 1488.92 457.656 1488.92 460.024C1488.92 462.328 1488.21 464.12 1486.8 465.4C1485.4 466.616 1483.35 467.224 1480.66 467.224ZM1522 524.056C1516.88 524.056 1512.4 523.064 1508.56 521.08C1504.78 519.032 1501.87 516.152 1499.82 512.44C1497.77 508.728 1496.75 504.344 1496.75 499.288C1496.75 495.512 1497.32 492.12 1498.48 489.112C1499.63 486.104 1501.29 483.544 1503.47 481.432C1505.71 479.32 1508.4 477.72 1511.53 476.632C1514.67 475.48 1518.16 474.904 1522 474.904C1523.98 474.904 1526.09 475.16 1528.33 475.672C1530.57 476.12 1532.78 476.92 1534.96 478.072C1536.24 478.648 1537.1 479.48 1537.55 480.568C1538.06 481.592 1538.25 482.68 1538.12 483.832C1538 484.92 1537.58 485.912 1536.88 486.808C1536.24 487.64 1535.4 488.216 1534.38 488.536C1533.36 488.792 1532.2 488.6 1530.92 487.96C1529.71 487.256 1528.43 486.744 1527.08 486.424C1525.8 486.104 1524.59 485.944 1523.44 485.944C1521.52 485.944 1519.82 486.264 1518.35 486.904C1516.88 487.48 1515.63 488.344 1514.6 489.496C1513.64 490.584 1512.88 491.96 1512.3 493.624C1511.79 495.288 1511.53 497.208 1511.53 499.384C1511.53 503.608 1512.56 506.936 1514.6 509.368C1516.72 511.736 1519.66 512.92 1523.44 512.92C1524.59 512.92 1525.8 512.792 1527.08 512.536C1528.36 512.216 1529.64 511.704 1530.92 511C1532.2 510.36 1533.36 510.2 1534.38 510.52C1535.4 510.84 1536.2 511.448 1536.78 512.344C1537.42 513.176 1537.77 514.168 1537.84 515.32C1537.96 516.408 1537.77 517.496 1537.26 518.584C1536.81 519.608 1535.98 520.408 1534.76 520.984C1532.59 522.072 1530.41 522.84 1528.24 523.288C1526.06 523.8 1523.98 524.056 1522 524.056ZM1552.19 523.768C1549.82 523.768 1548 523.096 1546.72 521.752C1545.5 520.344 1544.9 518.392 1544.9 515.896V483.064C1544.9 480.504 1545.5 478.552 1546.72 477.208C1548 475.8 1549.82 475.096 1552.19 475.096C1554.5 475.096 1556.26 475.8 1557.47 477.208C1558.75 478.552 1559.39 480.504 1559.39 483.064V515.896C1559.39 518.392 1558.78 520.344 1557.57 521.752C1556.35 523.096 1554.56 523.768 1552.19 523.768ZM1552.19 467.224C1549.5 467.224 1547.42 466.616 1545.95 465.4C1544.54 464.12 1543.84 462.328 1543.84 460.024C1543.84 457.656 1544.54 455.864 1545.95 454.648C1547.42 453.368 1549.5 452.728 1552.19 452.728C1554.88 452.728 1556.93 453.368 1558.34 454.648C1559.74 455.864 1560.45 457.656 1560.45 460.024C1560.45 462.328 1559.74 464.12 1558.34 465.4C1556.93 466.616 1554.88 467.224 1552.19 467.224ZM674.032 655.056C669.616 655.056 665.904 654.32 662.896 652.848C659.952 651.376 657.744 649.232 656.272 646.416C654.864 643.6 654.16 640.048 654.16 635.76V617.712H650.128C648.336 617.712 646.928 617.232 645.904 616.272C644.944 615.312 644.464 614 644.464 612.336C644.464 610.544 644.944 609.2 645.904 608.304C646.928 607.344 648.336 606.864 650.128 606.864H654.16V599.568C654.16 597.136 654.8 595.312 656.08 594.096C657.36 592.816 659.152 592.176 661.456 592.176C663.824 592.176 665.616 592.816 666.832 594.096C668.048 595.312 668.656 597.136 668.656 599.568V606.864H677.776C679.568 606.864 680.944 607.344 681.904 608.304C682.864 609.2 683.344 610.544 683.344 612.336C683.344 614 682.864 615.312 681.904 616.272C680.944 617.232 679.568 617.712 677.776 617.712H668.656V635.184C668.656 637.872 669.264 639.888 670.48 641.232C671.76 642.576 673.776 643.248 676.528 643.248C677.488 643.248 678.384 643.152 679.216 642.96C680.048 642.768 680.816 642.64 681.52 642.576C682.416 642.512 683.152 642.8 683.728 643.44C684.304 644.016 684.592 645.328 684.592 647.376C684.592 648.912 684.336 650.256 683.824 651.408C683.312 652.56 682.416 653.392 681.136 653.904C680.304 654.224 679.152 654.48 677.68 654.672C676.272 654.928 675.056 655.056 674.032 655.056ZM713.72 655.056C708.152 655.056 703.352 654.064 699.32 652.08C695.352 650.032 692.28 647.184 690.104 643.536C687.992 639.824 686.936 635.472 686.936 630.48C686.936 625.616 687.96 621.36 690.008 617.712C692.056 614 694.904 611.12 698.552 609.072C702.264 606.96 706.456 605.904 711.128 605.904C714.52 605.904 717.592 606.48 720.344 607.632C723.096 608.72 725.464 610.32 727.448 612.432C729.432 614.48 730.936 617.008 731.96 620.016C732.984 622.96 733.496 626.256 733.496 629.904C733.496 631.12 733.112 632.048 732.344 632.688C731.576 633.264 730.456 633.552 728.984 633.552H698.84V626.064H723.032L721.496 627.408C721.496 624.784 721.112 622.608 720.344 620.88C719.576 619.088 718.456 617.744 716.984 616.848C715.576 615.952 713.816 615.504 711.704 615.504C709.336 615.504 707.32 616.048 705.656 617.136C703.992 618.224 702.712 619.792 701.816 621.84C700.92 623.888 700.472 626.352 700.472 629.232V630C700.472 634.864 701.592 638.448 703.832 640.752C706.136 643.056 709.528 644.208 714.008 644.208C715.544 644.208 717.304 644.016 719.288 643.632C721.272 643.248 723.128 642.64 724.856 641.808C726.328 641.104 727.64 640.88 728.792 641.136C729.944 641.328 730.84 641.84 731.48 642.672C732.12 643.504 732.472 644.464 732.536 645.552C732.664 646.64 732.44 647.728 731.864 648.816C731.288 649.84 730.328 650.704 728.984 651.408C726.808 652.624 724.344 653.52 721.592 654.096C718.904 654.736 716.28 655.056 713.72 655.056ZM749.223 654.864C746.855 654.864 745.031 654.224 743.751 652.944C742.535 651.664 741.927 649.84 741.927 647.472V613.392C741.927 611.024 742.535 609.232 743.751 608.016C745.031 606.736 746.791 606.096 749.031 606.096C751.335 606.096 753.095 606.736 754.311 608.016C755.527 609.232 756.135 611.024 756.135 613.392V618.864L755.079 615.696C756.551 612.56 758.727 610.16 761.607 608.496C764.551 606.768 767.879 605.904 771.591 605.904C775.367 605.904 778.471 606.64 780.903 608.112C783.335 609.52 785.159 611.696 786.375 614.64C787.591 617.52 788.199 621.2 788.199 625.68V647.472C788.199 649.84 787.559 651.664 786.279 652.944C785.063 654.224 783.271 654.864 780.903 654.864C778.599 654.864 776.807 654.224 775.527 652.944C774.311 651.664 773.703 649.84 773.703 647.472V626.352C773.703 623.088 773.095 620.752 771.879 619.344C770.727 617.872 768.935 617.136 766.503 617.136C763.431 617.136 760.967 618.096 759.111 620.016C757.319 621.936 756.423 624.496 756.423 627.696V647.472C756.423 652.4 754.023 654.864 749.223 654.864ZM822.157 655.056C817.741 655.056 814.029 654.32 811.021 652.848C808.077 651.376 805.869 649.232 804.397 646.416C802.989 643.6 802.285 640.048 802.285 635.76V617.712H798.253C796.461 617.712 795.053 617.232 794.029 616.272C793.069 615.312 792.589 614 792.589 612.336C792.589 610.544 793.069 609.2 794.029 608.304C795.053 607.344 796.461 606.864 798.253 606.864H802.285V599.568C802.285 597.136 802.925 595.312 804.205 594.096C805.485 592.816 807.277 592.176 809.581 592.176C811.949 592.176 813.741 592.816 814.957 594.096C816.173 595.312 816.781 597.136 816.781 599.568V606.864H825.901C827.693 606.864 829.069 607.344 830.029 608.304C830.989 609.2 831.469 610.544 831.469 612.336C831.469 614 830.989 615.312 830.029 616.272C829.069 617.232 827.693 617.712 825.901 617.712H816.781V635.184C816.781 637.872 817.389 639.888 818.605 641.232C819.885 642.576 821.901 643.248 824.653 643.248C825.613 643.248 826.509 643.152 827.341 642.96C828.173 642.768 828.941 642.64 829.645 642.576C830.541 642.512 831.277 642.8 831.853 643.44C832.429 644.016 832.717 645.328 832.717 647.376C832.717 648.912 832.461 650.256 831.949 651.408C831.437 652.56 830.541 653.392 829.261 653.904C828.429 654.224 827.277 654.48 825.805 654.672C824.397 654.928 823.181 655.056 822.157 655.056ZM860.021 655.056C854.965 655.056 850.549 654.064 846.773 652.08C843.061 650.096 840.181 647.248 838.133 643.536C836.085 639.824 835.061 635.44 835.061 630.384C835.061 626.608 835.637 623.216 836.789 620.208C837.941 617.2 839.605 614.64 841.781 612.528C844.021 610.352 846.677 608.72 849.749 607.632C852.821 606.48 856.245 605.904 860.021 605.904C865.077 605.904 869.461 606.896 873.173 608.88C876.949 610.864 879.861 613.68 881.909 617.328C884.021 620.976 885.077 625.328 885.077 630.384C885.077 634.224 884.469 637.648 883.253 640.656C882.101 643.664 880.437 646.256 878.261 648.432C876.085 650.608 873.429 652.272 870.293 653.424C867.221 654.512 863.797 655.056 860.021 655.056ZM860.021 644.208C862.133 644.208 863.957 643.696 865.493 642.672C867.029 641.648 868.245 640.144 869.141 638.16C870.037 636.112 870.485 633.52 870.485 630.384C870.485 625.712 869.525 622.288 867.605 620.112C865.685 617.872 863.157 616.752 860.021 616.752C857.973 616.752 856.149 617.232 854.549 618.192C853.013 619.152 851.797 620.656 850.901 622.704C850.069 624.688 849.653 627.248 849.653 630.384C849.653 635.056 850.613 638.544 852.533 640.848C854.453 643.088 856.949 644.208 860.021 644.208ZM943.365 655.056C938.309 655.056 933.893 654.064 930.117 652.08C926.405 650.096 923.525 647.248 921.477 643.536C919.429 639.824 918.405 635.44 918.405 630.384C918.405 626.608 918.981 623.216 920.133 620.208C921.285 617.2 922.949 614.64 925.125 612.528C927.365 610.352 930.021 608.72 933.093 607.632C936.165 606.48 939.589 605.904 943.365 605.904C948.421 605.904 952.805 606.896 956.517 608.88C960.293 610.864 963.205 613.68 965.253 617.328C967.365 620.976 968.421 625.328 968.421 630.384C968.421 634.224 967.813 637.648 966.597 640.656C965.445 643.664 963.781 646.256 961.605 648.432C959.429 650.608 956.773 652.272 953.637 653.424C950.565 654.512 947.141 655.056 943.365 655.056ZM943.365 644.208C945.477 644.208 947.301 643.696 948.837 642.672C950.373 641.648 951.589 640.144 952.485 638.16C953.381 636.112 953.829 633.52 953.829 630.384C953.829 625.712 952.869 622.288 950.949 620.112C949.029 617.872 946.501 616.752 943.365 616.752C941.317 616.752 939.493 617.232 937.893 618.192C936.357 619.152 935.141 620.656 934.245 622.704C933.413 624.688 932.997 627.248 932.997 630.384C932.997 635.056 933.957 638.544 935.877 640.848C937.797 643.088 940.293 644.208 943.365 644.208ZM1006.33 655.056C1002.55 655.056 999.192 654.128 996.248 652.272C993.368 650.352 991.448 647.824 990.488 644.688L991.544 641.52V647.472C991.544 649.84 990.936 651.664 989.72 652.944C988.504 654.224 986.744 654.864 984.44 654.864C982.136 654.864 980.344 654.224 979.064 652.944C977.848 651.664 977.24 649.84 977.24 647.472V592.848C977.24 590.416 977.848 588.592 979.064 587.376C980.344 586.096 982.168 585.456 984.536 585.456C986.84 585.456 988.6 586.096 989.816 587.376C991.096 588.592 991.736 590.416 991.736 592.848V615.6H990.584C991.608 612.72 993.56 610.384 996.44 608.592C999.32 606.8 1002.62 605.904 1006.33 605.904C1010.49 605.904 1014.1 606.896 1017.18 608.88C1020.25 610.864 1022.65 613.68 1024.38 617.328C1026.1 620.976 1026.97 625.328 1026.97 630.384C1026.97 635.44 1026.1 639.824 1024.38 643.536C1022.65 647.248 1020.22 650.096 1017.08 652.08C1014.01 654.064 1010.42 655.056 1006.33 655.056ZM1002.01 644.208C1004.06 644.208 1005.85 643.696 1007.38 642.672C1008.98 641.648 1010.2 640.144 1011.03 638.16C1011.93 636.112 1012.38 633.52 1012.38 630.384C1012.38 625.712 1011.42 622.288 1009.5 620.112C1007.58 617.872 1005.08 616.752 1002.01 616.752C999.96 616.752 998.136 617.232 996.536 618.192C995 619.152 993.784 620.656 992.888 622.704C991.992 624.688 991.544 627.248 991.544 630.384C991.544 635.056 992.504 638.544 994.424 640.848C996.344 643.088 998.872 644.208 1002.01 644.208ZM1043.32 654.864C1040.89 654.864 1039.03 654.224 1037.75 652.944C1036.47 651.664 1035.83 649.84 1035.83 647.472V613.392C1035.83 611.024 1036.44 609.232 1037.66 608.016C1038.94 606.736 1040.7 606.096 1042.94 606.096C1045.24 606.096 1047 606.736 1048.22 608.016C1049.43 609.232 1050.04 611.024 1050.04 613.392V618.384H1049.08C1049.85 614.544 1051.55 611.568 1054.17 609.456C1056.79 607.344 1060.19 606.16 1064.35 605.904C1065.95 605.776 1067.16 606.192 1067.99 607.152C1068.89 608.048 1069.37 609.552 1069.43 611.664C1069.56 613.648 1069.15 615.216 1068.19 616.368C1067.29 617.52 1065.75 618.224 1063.58 618.48L1061.37 618.672C1057.72 618.992 1055 620.048 1053.21 621.84C1051.48 623.632 1050.62 626.224 1050.62 629.616V647.472C1050.62 649.84 1049.98 651.664 1048.7 652.944C1047.48 654.224 1045.69 654.864 1043.32 654.864ZM1091.33 655.056C1087.88 655.056 1084.77 654.384 1082.02 653.04C1079.27 651.696 1077.12 649.872 1075.59 647.568C1074.05 645.264 1073.28 642.672 1073.28 639.792C1073.28 636.336 1074.18 633.616 1075.97 631.632C1077.76 629.584 1080.68 628.144 1084.71 627.312C1088.74 626.416 1094.08 625.968 1100.74 625.968H1105.83V633.456H1100.84C1097.57 633.456 1094.92 633.648 1092.87 634.032C1090.88 634.352 1089.44 634.928 1088.55 635.76C1087.72 636.592 1087.3 637.744 1087.3 639.216C1087.3 641.008 1087.91 642.48 1089.12 643.632C1090.4 644.784 1092.23 645.36 1094.6 645.36C1096.45 645.36 1098.08 644.944 1099.49 644.112C1100.96 643.216 1102.12 642.032 1102.95 640.56C1103.78 639.024 1104.2 637.296 1104.2 635.376V624.336C1104.2 621.52 1103.56 619.536 1102.28 618.384C1101 617.168 1098.82 616.56 1095.75 616.56C1094.02 616.56 1092.13 616.784 1090.08 617.232C1088.1 617.616 1085.89 618.288 1083.46 619.248C1082.05 619.888 1080.8 620.048 1079.72 619.728C1078.63 619.344 1077.8 618.704 1077.22 617.808C1076.64 616.848 1076.36 615.824 1076.36 614.736C1076.36 613.584 1076.68 612.496 1077.32 611.472C1077.96 610.384 1079.01 609.584 1080.48 609.072C1083.49 607.856 1086.31 607.024 1088.93 606.576C1091.62 606.128 1094.08 605.904 1096.32 605.904C1101.25 605.904 1105.28 606.64 1108.42 608.112C1111.62 609.52 1114.02 611.728 1115.62 614.736C1117.22 617.68 1118.02 621.488 1118.02 626.16V647.472C1118.02 649.84 1117.44 651.664 1116.29 652.944C1115.14 654.224 1113.48 654.864 1111.3 654.864C1109.12 654.864 1107.43 654.224 1106.21 652.944C1105.06 651.664 1104.48 649.84 1104.48 647.472V643.92L1105.16 644.496C1104.77 646.672 1103.94 648.56 1102.66 650.16C1101.44 651.696 1099.88 652.912 1097.96 653.808C1096.04 654.64 1093.83 655.056 1091.33 655.056ZM1102.28 600.048C1101.51 601.072 1100.58 601.648 1099.49 601.776C1098.47 601.904 1097.48 601.712 1096.52 601.2C1095.56 600.688 1094.85 599.952 1094.4 598.992C1094.02 597.968 1094.12 596.88 1094.69 595.728L1101.51 582.192C1102.15 580.784 1103.01 579.888 1104.1 579.504C1105.25 579.12 1106.4 579.088 1107.56 579.408C1108.77 579.728 1109.8 580.304 1110.63 581.136C1111.52 581.904 1112.07 582.864 1112.26 584.016C1112.45 585.168 1112.1 586.352 1111.2 587.568L1102.28 600.048ZM1132.87 654C1131.46 654 1130.27 653.648 1129.31 652.944C1128.35 652.176 1127.71 651.216 1127.39 650.064C1127.07 648.912 1127.07 647.664 1127.39 646.32C1127.78 644.976 1128.51 643.728 1129.6 642.576L1153.12 614.352V617.712H1132.29C1130.56 617.712 1129.22 617.232 1128.26 616.272C1127.3 615.312 1126.82 614 1126.82 612.336C1126.82 610.544 1127.3 609.2 1128.26 608.304C1129.22 607.344 1130.56 606.864 1132.29 606.864H1160.03C1161.76 606.864 1163.14 607.248 1164.16 608.016C1165.19 608.784 1165.86 609.744 1166.18 610.896C1166.56 611.984 1166.59 613.2 1166.27 614.544C1166.02 615.824 1165.35 617.04 1164.26 618.192L1140.16 646.992V643.248H1162.43C1166.08 643.248 1167.91 645.04 1167.91 648.624C1167.91 650.352 1167.43 651.696 1166.47 652.656C1165.51 653.552 1164.16 654 1162.43 654H1132.87ZM1198.5 655.056C1192.93 655.056 1188.13 654.064 1184.1 652.08C1180.13 650.032 1177.06 647.184 1174.89 643.536C1172.77 639.824 1171.72 635.472 1171.72 630.48C1171.72 625.616 1172.74 621.36 1174.79 617.712C1176.84 614 1179.69 611.12 1183.33 609.072C1187.05 606.96 1191.24 605.904 1195.91 605.904C1199.3 605.904 1202.37 606.48 1205.13 607.632C1207.88 608.72 1210.25 610.32 1212.23 612.432C1214.21 614.48 1215.72 617.008 1216.74 620.016C1217.77 622.96 1218.28 626.256 1218.28 629.904C1218.28 631.12 1217.89 632.048 1217.13 632.688C1216.36 633.264 1215.24 633.552 1213.77 633.552H1183.62V626.064H1207.81L1206.28 627.408C1206.28 624.784 1205.89 622.608 1205.13 620.88C1204.36 619.088 1203.24 617.744 1201.77 616.848C1200.36 615.952 1198.6 615.504 1196.49 615.504C1194.12 615.504 1192.1 616.048 1190.44 617.136C1188.77 618.224 1187.49 619.792 1186.6 621.84C1185.7 623.888 1185.25 626.352 1185.25 629.232V630C1185.25 634.864 1186.37 638.448 1188.61 640.752C1190.92 643.056 1194.31 644.208 1198.79 644.208C1200.33 644.208 1202.09 644.016 1204.07 643.632C1206.05 643.248 1207.91 642.64 1209.64 641.808C1211.11 641.104 1212.42 640.88 1213.57 641.136C1214.73 641.328 1215.62 641.84 1216.26 642.672C1216.9 643.504 1217.25 644.464 1217.32 645.552C1217.45 646.64 1217.22 647.728 1216.65 648.816C1216.07 649.84 1215.11 650.704 1213.77 651.408C1211.59 652.624 1209.13 653.52 1206.37 654.096C1203.69 654.736 1201.06 655.056 1198.5 655.056ZM1234 654.864C1231.64 654.864 1229.81 654.224 1228.53 652.944C1227.32 651.664 1226.71 649.84 1226.71 647.472V592.848C1226.71 590.416 1227.32 588.592 1228.53 587.376C1229.81 586.096 1231.64 585.456 1234 585.456C1236.31 585.456 1238.07 586.096 1239.28 587.376C1240.56 588.592 1241.2 590.416 1241.2 592.848V626.352H1241.4L1255.32 610.896C1256.72 609.296 1258 608.112 1259.16 607.344C1260.37 606.512 1261.97 606.096 1263.96 606.096C1265.94 606.096 1267.44 606.608 1268.47 607.632C1269.56 608.656 1270.1 609.904 1270.1 611.376C1270.16 612.784 1269.56 614.224 1268.28 615.696L1253.59 632.112V626.64L1269.91 645.456C1271.12 646.928 1271.64 648.4 1271.44 649.872C1271.32 651.344 1270.68 652.56 1269.52 653.52C1268.37 654.416 1266.9 654.864 1265.11 654.864C1262.93 654.864 1261.17 654.448 1259.83 653.616C1258.55 652.784 1257.24 651.504 1255.89 649.776L1241.4 633.648H1241.2V647.472C1241.2 652.4 1238.8 654.864 1234 654.864Z" fill="white"/>
<g filter="url(#filter0_d_2_2)">
<path fill-rule="evenodd" clip-rule="evenodd" d="M918.292 752.5C918.292 729.778 936.778 711.292 959.5 711.292C982.222 711.292 1000.71 729.778 1000.71 752.5C1000.71 775.222 982.222 793.708 959.5 793.708C936.778 793.708 918.292 775.222 918.292 752.5ZM943.375 748.917C946.341 748.917 948.75 746.51 948.75 743.542C948.75 740.576 946.341 738.167 943.375 738.167C940.409 738.167 938 740.576 938 743.542C938 746.51 940.409 748.917 943.375 748.917ZM981 743.542C981 746.51 978.591 748.917 975.625 748.917C972.659 748.917 970.25 746.51 970.25 743.542C970.25 740.576 972.659 738.167 975.625 738.167C978.591 738.167 981 740.576 981 743.542ZM946.017 770.942C948.624 766.725 954.202 764.018 960.217 764.242C965.734 764.448 970.612 767.084 972.981 770.94C973.27 771.411 973.886 771.558 974.357 771.269C974.827 770.98 974.974 770.364 974.685 769.893C971.902 765.363 966.344 762.47 960.292 762.244C953.705 761.998 947.373 764.944 944.316 769.891C944.026 770.361 944.171 770.977 944.641 771.267C945.111 771.558 945.727 771.412 946.017 770.942Z" fill="white"/>
</g>
<defs>
<filter id="filter0_d_2_2" x="891" y="688" width="137" height="137" filterUnits="userSpaceOnUse" color-interpolation-filters="sRGB">
<feFlood flood-opacity="0" result="BackgroundImageFix"/>
<feColorMatrix in="SourceAlpha" type="matrix" values="0 0 0 0 0 0 0 0 0 0 0 0 0 0 0 0 0 0 127 0" result="hardAlpha"/>
<feOffset dy="4"/>
<feGaussianBlur stdDeviation="2"/>
<feComposite in2="hardAlpha" operator="out"/>
<feColorMatrix type="matrix" values="0 0 0 0 0 0 0 0 0 0 0 0 0 0 0 0 0 0 0.25 0"/>
<feBlend mode="normal" in2="BackgroundImageFix" result="effect1_dropShadow_2_2"/>
<feBlend mode="normal" in="SourceGraphic" in2="effect1_dropShadow_2_2" result="shape"/>
</filter>
<linearGradient id="paint0_linear_2_2" x1="17.5" y1="1080" x2="1920" y2="1.87838e-05" gradientUnits="userSpaceOnUse">
<stop stop-color="#0B264B"/>
<stop offset="1" stop-color="#0062A3"/>
</linearGradient>
</defs>
</svg>
